<?xml version="1.0" standalone="no"?>
<!DOCTYPE svg PUBLIC "-//W3C//DTD SVG 20010904//EN"
 "http://www.w3.org/TR/2001/REC-SVG-20010904/DTD/svg10.dtd">
<svg version="1.0" xmlns="http://www.w3.org/2000/svg"
 width="474.000000pt" height="526.000000pt" viewBox="0 0 474.000000 526.000000"
 preserveAspectRatio="xMidYMid meet">

<g transform="translate(0.000000,526.000000) scale(0.100000,-0.100000)"
fill="#000000" stroke="none">
<path d="M2230 5250 c-40 -25 -172 -100 -175 -100 -2 0 -42 -22 -90 -50 -48
-27 -88 -50 -90 -50 -2 0 -36 -19 -77 -43 -40 -24 -98 -57 -128 -74 -30 -16
-138 -76 -240 -133 -102 -57 -210 -117 -240 -133 -30 -16 -73 -42 -95 -57 -36
-24 -189 -111 -485 -275 -52 -29 -129 -72 -170 -95 -41 -23 -119 -66 -172 -95
-181 -100 -213 -127 -247 -208 -21 -48 -21 -58 -21 -1272 0 -1199 0 -1225 20
-1278 29 -76 68 -110 230 -199 89 -49 170 -94 415 -233 116 -65 230 -129 255
-143 25 -13 71 -40 103 -58 32 -19 60 -34 63 -34 3 0 29 -15 58 -34 46 -29
182 -108 326 -188 125 -70 383 -215 440 -248 36 -21 85 -49 110 -63 266 -147
259 -144 348 -141 65 3 99 16 222 85 36 20 142 79 235 132 94 52 188 105 210
117 22 13 132 75 245 138 113 63 223 127 245 142 22 14 69 42 105 62 76 41
124 68 275 153 61 34 130 73 155 87 25 14 97 54 160 90 63 36 158 89 210 118
189 105 207 118 242 172 l33 53 0 1260 0 1260 -27 45 c-39 66 -70 92 -198 163
-63 35 -173 97 -245 137 -71 40 -155 87 -185 103 -30 16 -68 37 -85 47 -16 10
-50 29 -75 42 -128 71 -240 135 -285 163 -27 18 -81 49 -120 70 -38 21 -132
73 -209 116 -76 44 -140 79 -141 79 -2 0 -42 23 -90 50 -48 28 -88 50 -90 50
-2 0 -43 23 -92 51 -48 28 -115 66 -148 84 -33 18 -105 58 -160 89 l-100 56
-105 -1 c-58 0 -112 -4 -120 -9z m475 -879 c470 -102 851 -364 1123 -773 l31
-47 -27 -19 c-15 -10 -115 -69 -222 -131 -107 -62 -262 -152 -345 -201 -82
-49 -157 -89 -165 -89 -8 0 -28 20 -44 45 -73 116 -203 226 -340 290 -117 54
-216 75 -356 75 -247 0 -439 -78 -603 -245 -151 -155 -229 -313 -257 -524 -27
-202 42 -448 175 -622 179 -234 440 -354 733 -337 59 4 134 14 167 23 69 18
205 79 261 118 54 36 178 161 222 221 19 28 39 54 43 59 7 8 123 -53 354 -185
55 -32 165 -94 245 -138 80 -45 151 -85 159 -90 24 -15 -112 -211 -244 -349
-596 -629 -1565 -720 -2274 -214 -172 122 -375 343 -485 528 -125 209 -211
481 -237 755 -21 212 10 459 86 693 192 587 703 1038 1308 1156 151 29 145 28
377 25 175 -2 234 -7 315 -24z m100 -1427 c-22 -17 -164 -101 -355 -211 -69
-39 -124 -76 -123 -82 2 -6 -3 -8 -11 -5 -7 3 -120 -56 -252 -131 -271 -155
-424 -239 -424 -232 0 5 99 67 108 67 4 0 23 11 42 23 19 13 60 37 90 54 30
16 115 64 187 106 73 43 135 77 138 77 2 0 34 18 70 40 36 22 67 40 70 40 3 0
34 18 70 40 36 22 67 40 69 40 1 0 77 43 167 95 162 93 193 109 154 79z"/>
</g>
</svg>
