<?xml version="1.0" encoding="utf-8"?>
<!-- Generator: Adobe Illustrator 26.0.3, SVG Export Plug-In . SVG Version: 6.00 Build 0)  -->
<svg version="1.0" id="Layer_1" xmlns="http://www.w3.org/2000/svg" xmlns:xlink="http://www.w3.org/1999/xlink" x="0px" y="0px"
	 viewBox="0 0 254.9 185.6" style="enable-background:new 0 0 254.9 185.6;" xml:space="preserve">
<style type="text/css">
	.st0{fill:url(#SVGID_1_);}
	.st1{fill:url(#SVGID_00000092451757177074409390000015550823377995398818_);}
	.st2{fill:url(#SVGID_00000179628295905409258530000005583088488504520861_);}
	.st3{fill:url(#SVGID_00000116945335572676780780000011206688182228999856_);}
	.st4{fill:url(#SVGID_00000021112263307023196490000015790436063816194719_);}
	.st5{fill:url(#SVGID_00000145737571607086838580000007491966668511283853_);}
	.st6{fill:#000F33;}
	.st7{fill:#FFFFFF;}
</style>
<linearGradient id="SVGID_1_" gradientUnits="userSpaceOnUse" x1="66.6628" y1="394.1425" x2="82.5428" y2="403.3025" gradientTransform="matrix(1 0 0 1 -5.51 -318.79)">
	<stop  offset="0" style="stop-color:#000"/>
	<stop  offset="1" style="stop-color:#000"/>
</linearGradient>
<path class="st0" d="M87.7,78.6c-5.2-9.3-14.9-15-25.5-15v29.2L87.7,78.6z"/>
<linearGradient id="SVGID_00000059272949067418286980000009197269835281092284_" gradientUnits="userSpaceOnUse" x1="82.2916" y1="420.75" x2="82.2916" y2="403.21" gradientTransform="matrix(1 0 0 1 -5.51 -318.79)">
	<stop  offset="0" style="stop-color:#000"/>
	<stop  offset="1" style="stop-color:#000"/>
</linearGradient>
<path style="fill:url(#SVGID_00000059272949067418286980000009197269835281092284_);" d="M87.2,107.8c5.4-9.1,5.5-20.4,0.2-29.6
	L62.2,92.8L87.2,107.8z"/>
<linearGradient id="SVGID_00000139256926365021682100000000498504885455560378_" gradientUnits="userSpaceOnUse" x1="67.043" y1="428.8152" x2="82.693" y2="419.7752" gradientTransform="matrix(1 0 0 1 -5.51 -318.79)">
	<stop  offset="0" style="stop-color:#000"/>
	<stop  offset="1" style="stop-color:#000"/>
</linearGradient>
<path style="fill:url(#SVGID_00000139256926365021682100000000498504885455560378_);" d="M61.7,122c10.6,0.2,20.5-5.4,25.8-14.6
	L62.2,92.8L61.7,122z"/>
<linearGradient id="SVGID_00000137096999857356621030000013764201605046186675_" gradientUnits="userSpaceOnUse" x1="52.4415" y1="419.6274" x2="67.7215" y2="428.4574" gradientTransform="matrix(1 0 0 1 -5.51 -318.79)">
	<stop  offset="0" style="stop-color:#000"/>
	<stop  offset="1" style="stop-color:#000"/>
</linearGradient>
<path style="fill:url(#SVGID_00000137096999857356621030000013764201605046186675_);" d="M36.7,106.9c5.1,9.3,14.9,15,25.5,15.1
	V92.8L36.7,106.9z"/>
<linearGradient id="SVGID_00000142138375886440481880000007852657733374207652_" gradientUnits="userSpaceOnUse" x1="53.0934" y1="402.53" x2="53.0934" y2="420.08" gradientTransform="matrix(1 0 0 1 -5.51 -318.79)">
	<stop  offset="0" style="stop-color:#000"/>
	<stop  offset="1" style="stop-color:#000"/>
</linearGradient>
<path style="fill:url(#SVGID_00000142138375886440481880000007852657733374207652_);" d="M37.2,77.8c-5.5,9.1-5.6,20.4-0.3,29.6
	l25.3-14.6L37.2,77.8z"/>
<linearGradient id="SVGID_00000049910363774211415220000011967117600770552490_" gradientUnits="userSpaceOnUse" x1="53.2677" y1="403.0559" x2="67.9277" y2="394.5859" gradientTransform="matrix(1 0 0 1 -5.51 -318.79)">
	<stop  offset="0" style="stop-color:#000"/>
	<stop  offset="1" style="stop-color:#000"/>
</linearGradient>
<path style="fill:url(#SVGID_00000049910363774211415220000011967117600770552490_);" d="M62.7,63.6C52.1,63.4,42.2,69,36.9,78.2
	l25.3,14.6L62.7,63.6z"/>
<circle style="fill:#000" class="st6" cx="62.2" cy="92.8" r="23.1"/>
<path class="st7" d="M76.9,92.4c-1.4,0-2.5,1-2.8,2.3c-1.3,6.3-7.4,10.4-13.7,9.1s-10.4-7.4-9.1-13.7c1.3-6.3,7.4-10.4,13.7-9.1
	c0.5,0.1,1,0.2,1.5,0.4c1.2,0.5,2.7,0,3.3-1.2l0.1-0.2c0.8-1.3,0.3-3-1-3.8c-0.2-0.1-0.3-0.2-0.5-0.2c-9-3.2-19,1.5-22.2,10.6
	c-3.2,9,1.5,19,10.6,22.2c9,3.2,19-1.5,22.2-10.6c0.3-0.8,0.5-1.6,0.7-2.5c0.3-1.5-0.8-3-2.3-3.3C77.3,92.5,77.1,92.4,76.9,92.4z"/>
<path class="st7" d="M66.9,90.7c-2.1,0-3.7,1.7-3.7,3.7c0,2.1,1.7,3.7,3.7,3.7c2.1,0,3.7-1.7,3.7-3.7C70.7,92.4,69,90.7,66.9,90.7
	C66.9,90.7,66.9,90.7,66.9,90.7z"/>
</svg>
