<!-- Generated by IcoMoon.io -->
<svg version="1.1" xmlns="http://www.w3.org/2000/svg" width="1024" height="1024" viewBox="0 0 1024 1024">
<title></title>
<g id="icomoon-ignore">
</g>
<path fill="#000" d="M229.439 736c13.127 37.286 48.584 64 90.565 64h415.992c41.785 0 77.335-26.761 90.526-64h-597.084zM544 704h320c0 70.549-57.299 128-127.98 128h-416.040c-70.685 0-127.98-57.308-127.98-128h320v-480h32v480zM864 672l-288-288v288h288zM784 640h-176v-176l176 176zM288 400v0c96-160 192-176 192-176s-32 112-32 256c0 144 32 192 32 192h-288c0 0 0-112 96-272zM300.697 441.889c-73.497 139.504-73.497 198.111-73.497 198.111h208c0 0-19.2-57.879-19.2-160s19.2-199.305 19.2-199.305c0 0-71.691 41.972-134.503 161.193v0z"></path>
</svg>
